<svg width="198" height="197" viewBox="0 0 198 197" fill="none" xmlns="http://www.w3.org/2000/svg">
<g clip-path="url(#clip0_214_247)">
<path d="M192.763 121.126H130.534C122.081 121.126 115.205 128.003 115.205 136.455C115.205 142.387 118.592 147.542 123.533 150.09L117.091 154.15L90.1371 137.164C82.9875 132.657 73.5023 134.81 68.9965 141.959C64.4792 149.125 66.6224 158.583 73.7915 163.101L108.917 185.237C113.909 188.384 120.267 188.387 125.263 185.237L178.346 151.784H192.762C195.135 151.784 197.058 149.86 197.058 147.488V125.421C197.059 123.049 195.135 121.126 192.763 121.126ZM188.467 143.193H177.106C176.296 143.193 175.502 143.422 174.816 143.854L120.682 177.97C118.53 179.328 115.652 179.328 113.499 177.97L78.3729 155.833C75.2222 153.848 74.2789 149.692 76.2646 146.541C78.2469 143.396 82.4165 142.454 85.5574 144.433L114.801 162.862C116.2 163.744 117.982 163.744 119.382 162.862L136.959 151.784H142.672C145.045 151.784 146.968 149.861 146.968 147.489C146.968 145.116 145.045 143.193 142.672 143.193C135.831 143.193 137.303 143.193 130.535 143.193C126.82 143.193 123.797 140.171 123.797 136.455C123.797 132.74 126.819 129.717 130.535 129.717H188.467V143.193Z" fill="white"/>
<path d="M110.416 74.9021C110.401 74.9021 110.384 74.9021 110.369 74.9021C105.848 74.9021 101.619 76.7475 98.529 80.0751C95.4339 76.7417 91.2024 74.9021 86.6892 74.9021C86.6737 74.9021 86.6571 74.9021 86.6417 74.9021C72.5784 74.9422 65.3177 91.7878 74.8969 102.047C74.941 102.098 74.9863 102.147 75.0327 102.196L91.2603 119.063C95.226 123.185 101.817 123.199 105.798 119.063L122.025 102.196C122.071 102.147 122.116 102.098 122.161 102.047C131.701 91.8279 124.56 74.9422 110.416 74.9021ZM115.821 96.2478C115.788 96.2833 115.755 96.3188 115.722 96.3554L99.6069 113.107C99.0187 113.717 98.0404 113.719 97.4517 113.107L81.3357 96.3554C81.3031 96.3188 81.2704 96.2833 81.2366 96.2478C76.6948 91.4974 80.0144 83.5116 86.6657 83.4927C86.6731 83.4927 86.68 83.4927 86.688 83.4927C90.8576 83.4927 94.2328 86.8668 94.2328 91.0375C94.2328 93.4098 96.1555 95.3331 98.5284 95.3331C100.901 95.3331 102.824 93.4098 102.824 91.0375C102.824 86.8673 106.199 83.4927 110.369 83.4927C110.377 83.4927 110.384 83.4927 110.391 83.4927C117.03 83.5116 120.376 91.4848 115.821 96.2478Z" fill="#0091BE"/>
<path d="M81.8529 60.6035C81.8529 54.6721 78.4663 49.5162 73.5252 46.9687L79.9674 42.9085L106.921 59.8944C114.07 64.4008 123.556 62.249 128.062 55.0994C132.579 47.9332 130.436 38.4754 123.266 33.9576L88.1411 11.8215C83.149 8.67483 76.791 8.67196 71.7949 11.8215L18.7116 45.2745H4.2956C1.92271 45.2745 0 47.1978 0 49.5701V71.6368C0 74.0092 1.92271 75.9324 4.2956 75.9324H66.5239C74.9765 75.9324 81.8529 69.0555 81.8529 60.6035ZM66.5239 67.3413H8.5912V53.8657H19.9522C20.7626 53.8657 21.557 53.6366 22.2426 53.2041L76.3763 19.0885C78.5287 17.7311 81.4062 17.7305 83.5597 19.0891L118.686 41.2252C121.836 43.2103 122.78 47.3661 120.794 50.518C118.813 53.6606 114.644 54.6062 111.501 52.6257L82.2578 34.1964C80.8586 33.3144 79.0762 33.3144 77.677 34.1964L60.0994 45.2745H54.3863C52.0134 45.2745 50.0907 47.1978 50.0907 49.5701C50.0907 51.9424 52.0134 53.8657 54.3863 53.8657C61.2272 53.8657 59.7552 53.8657 66.5239 53.8657C70.2388 53.8657 73.2617 56.8881 73.2617 60.6035C73.2617 64.3183 70.2393 67.3413 66.5239 67.3413Z" fill="white"/>
</g>
<defs>
<clipPath id="clip0_214_247">
<rect width="197.058" height="197.058" fill="white"/>
</clipPath>
</defs>
</svg>
