<svg width="116" height="116" viewBox="0 0 116 116" fill="none" xmlns="http://www.w3.org/2000/svg">
<g clip-path="url(#clip0_213_202)">
<path d="M58 89.5649C44.9556 89.5649 30.9167 84.4635 17.401 74.8117C7.29737 67.5967 1.06123 60.4486 0.800642 60.1474C-0.266881 58.9148 -0.266881 57.0852 0.800642 55.8524C1.06123 55.5516 7.2971 48.4031 17.401 41.1881C30.917 31.5371 44.9559 26.4351 58 26.4351C71.0444 26.4351 85.0835 31.5368 98.5989 41.1881C108.703 48.4031 114.939 55.5514 115.199 55.8524C116.267 57.0849 116.267 58.9145 115.199 60.1474C114.939 60.4481 108.703 67.5967 98.5989 74.8117C85.0835 84.4632 71.0446 89.5649 58 89.5649ZM7.77759 58.0003C10.2994 60.5717 15.059 65.0935 21.3431 69.5654C29.9584 75.6958 43.3113 83.0044 58 83.0044C72.6887 83.0044 86.0419 75.6958 94.6569 69.5654C100.94 65.0943 105.7 60.572 108.222 58.0003C105.701 55.4288 100.941 50.9071 94.6569 46.4352C86.0419 40.3045 72.6887 32.9961 58 32.9961C43.3113 32.9961 29.9584 40.3045 21.3431 46.4352C15.0597 50.9063 10.3 55.428 7.77759 58.0003Z" fill="white"/>
<path d="M58 78.3378C46.7858 78.3378 37.6625 69.2143 37.6625 58.0003C37.6625 46.7863 46.7858 37.6628 58 37.6628C62.9319 37.6628 67.6896 39.4509 71.396 42.6981C72.7587 43.8918 72.8957 45.9641 71.702 47.3269C70.5082 48.6896 68.4356 48.8263 67.0732 47.6329C64.5634 45.4341 61.3409 44.2232 57.9997 44.2232C50.403 44.2232 44.2227 50.4038 44.2227 58.0003C44.2227 65.5968 50.403 71.7773 57.9997 71.7773C65.5968 71.7773 71.7768 65.5968 71.7768 58.0003C71.7768 56.1888 73.2455 54.72 75.057 54.72C76.8685 54.72 78.3373 56.1888 78.3373 58.0003C78.3378 69.2143 69.2142 78.3378 58 78.3378Z" fill="#0091BE"/>
<path d="M58 64.5608C54.3826 64.5608 51.4395 61.6177 51.4395 58.0003C51.4395 54.3828 54.3826 51.4398 58 51.4398C61.6177 51.4398 64.5605 54.3828 64.5605 58.0003C64.5605 61.6177 61.6177 64.5608 58 64.5608Z" fill="#0091BE"/>
</g>
<defs>
<clipPath id="clip0_213_202">
<rect width="116" height="116" fill="white"/>
</clipPath>
</defs>
</svg>
