<svg width="180" height="119" viewBox="0 0 180 119" fill="none" xmlns="http://www.w3.org/2000/svg">
<path d="M0.362498 61.6753C0.803403 62.5571 1.53824 63.2185 2.4568 63.5124L25.4574 71.4119C25.8615 71.5589 26.2289 71.5957 26.6331 71.5957C28.1395 71.5957 29.5725 70.6404 30.0869 69.1339L48.1272 16.4825L49.0458 16.8132C53.712 18.4666 58.9294 18.1726 63.3752 16.0049L65.6165 14.9026C68.2986 13.6166 71.4217 13.3962 74.2141 14.3882L116.174 28.8646C115.733 30.4812 114.888 32.3551 113.418 33.3839C111.728 34.5596 109.119 34.5596 105.702 33.3839L86.8902 26.954C85.9349 26.6233 84.8693 26.7335 83.9875 27.2112C83.1057 27.6888 82.4444 28.5339 82.1872 29.4892C82.1504 29.5994 79.505 39.2993 71.3482 43.6717C66.2043 46.4273 59.7745 46.5008 52.2423 43.9289C50.3318 43.2675 48.2742 44.2963 47.6128 46.2069C46.9515 48.1175 47.9803 50.175 49.8909 50.8364C54.2999 52.3428 58.4885 53.1144 62.3832 53.1144C66.9024 53.1144 71.0543 52.0856 74.8387 50.0648C82.1872 46.0966 86.0818 39.2626 87.8822 35.0373L103.314 40.3281C109.046 42.2755 113.822 41.9815 117.533 39.4096C123.375 35.3679 123.779 27.4684 123.816 26.5866C123.853 25.0067 122.861 23.5737 121.354 23.0226L76.5289 7.55417C71.8994 5.97426 66.7555 6.2682 62.3464 8.43598L60.1052 9.53825C57.3862 10.861 54.2264 11.0447 51.3973 10.0526L47.6863 8.72992C47.4659 8.58295 47.2454 8.47273 46.9882 8.39924L24.0979 0.426203C22.1873 -0.235154 20.1297 0.793626 19.4684 2.70422L0.178787 58.9196C-0.11515 59.8014 -0.0416655 60.7935 0.362498 61.6753ZM25.2002 8.47272L41.2932 13.984L24.3918 63.3287L8.29879 57.8174L25.2002 8.47272Z" fill="#0091BE"/>
<path d="M38.2436 95.0004C40.044 98.6746 43.6447 100.806 47.4659 100.953C47.4659 102.533 47.8333 104.149 48.5314 105.619C49.7806 108.191 51.9484 110.101 54.6673 111.02C55.8063 111.424 56.9821 111.608 58.1211 111.608C59.7377 111.608 61.3176 111.24 62.7873 110.506L64.6979 109.55C64.8449 110.653 65.1756 111.792 65.69 112.857C66.9392 115.429 69.107 117.34 71.8259 118.258C72.9649 118.662 74.1406 118.846 75.2796 118.846C76.8963 118.846 78.4762 118.479 79.9459 117.744L121.722 97.2784C131.054 92.7224 139.652 86.8437 147.294 79.8259L156.627 71.265L177.974 60.8302C179.774 59.9484 180.509 57.7806 179.627 55.9803L153.614 2.594C153.173 1.71219 152.438 1.05083 151.52 0.756897C150.601 0.426218 149.609 0.499702 148.727 0.940607L126.902 11.6326C125.102 12.5144 124.367 14.6822 125.249 16.4825L150.16 67.4071L142.444 74.4983C135.316 81.0384 127.27 86.513 118.599 90.7751L76.8228 111.24C76.0145 111.645 75.0959 111.681 74.2141 111.387C73.3691 111.093 72.671 110.469 72.2668 109.66C71.8626 108.852 71.8259 107.934 72.1198 107.052C72.4138 106.207 73.0384 105.509 73.8467 105.104L97.2147 93.6777C99.0151 92.7959 99.7499 90.6281 98.8681 88.8277C97.9863 87.0274 95.8185 86.2925 94.0181 87.1743L70.6501 98.6011L59.6275 104.002C58.8192 104.406 57.9006 104.443 57.0188 104.149C56.1738 103.855 55.4757 103.231 55.0715 102.422C54.6673 101.614 54.6306 100.695 54.9245 99.8136C55.2185 98.9686 55.8431 98.2704 56.6514 97.8663L90.1602 81.4793C91.9606 80.5975 92.6954 78.4297 91.8136 76.6293C90.9318 74.829 88.764 74.0941 86.9636 74.9759L49.303 93.3837C47.6128 94.1921 45.592 93.494 44.747 91.8406C44.3428 91.0322 44.3061 90.1137 44.6 89.2319C44.8939 88.3868 45.5185 87.6887 46.3269 87.2846L61.1707 80.0096L80.4603 70.5669C82.2607 69.6851 82.9955 67.5173 82.1137 65.7169C81.2319 63.9166 79.0641 63.1817 77.2637 64.0635L47.2454 78.7604C45.5553 79.5687 43.5345 78.8706 42.6894 77.2172C41.8811 75.5271 42.5792 73.5063 44.2326 72.6612L60.1786 64.8719C61.979 63.9901 62.7139 61.8223 61.832 60.0219C60.9502 58.2215 58.7824 57.4867 56.9821 58.3685L41.036 66.1578C35.7451 68.7298 33.5406 75.1597 36.1493 80.4505C36.8842 81.9569 37.9129 83.1694 39.1622 84.1615C36.9576 87.1376 36.4432 91.3629 38.2436 95.0004ZM133.369 16.556L148.654 9.06061L171.581 55.9068L156.296 63.4022L133.369 16.556Z" fill="white"/>
</svg>
