<svg width="175" height="175" viewBox="0 0 175 175" fill="none" xmlns="http://www.w3.org/2000/svg">
<path d="M150.379 151.621C150.379 145.3 145.236 140.157 138.915 140.157H110.276C108.733 140.157 107.483 141.408 107.483 142.95C107.483 144.492 108.733 145.742 110.276 145.742H138.915C142.156 145.742 144.794 148.379 144.794 151.621C144.794 152.275 144.681 152.912 144.475 153.516C142.827 152.598 140.932 152.073 138.915 152.073H99.8006C102.429 147.672 101.851 141.874 98.0649 138.088L65.2364 105.26C60.4977 100.521 51.5361 96.8088 44.8349 96.8088H4.63135C3.08916 96.8088 1.83887 98.0591 1.83887 99.6013C1.83887 101.144 3.08916 102.394 4.63135 102.394H44.8345C50.0585 102.394 57.5928 105.514 61.2873 109.209L94.1155 142.037C96.4076 144.329 96.4076 148.059 94.1155 150.351C91.8241 152.643 88.094 152.643 85.802 150.351L59.1216 123.67C58.031 122.58 56.2628 122.58 55.1725 123.67C54.0818 124.761 54.0818 126.529 55.1725 127.619L81.8528 154.3C84.0359 156.483 86.8872 157.596 89.7541 157.647C89.8218 157.652 89.8898 157.658 89.9585 157.658H138.914C142.156 157.658 144.793 160.295 144.793 163.536C144.793 166.778 142.156 169.415 138.917 169.415L84.2495 169.367C82.7654 169.365 80.2467 168.709 78.9253 167.983L23.3567 133.668C23.3242 133.648 23.2914 133.629 23.2579 133.61C21.1066 132.4 17.6234 131.488 15.1549 131.488H4.63135C3.08916 131.488 1.83887 132.739 1.83887 134.281C1.83887 135.823 3.08916 137.073 4.63135 137.073H15.1549C16.6387 137.073 19.1557 137.728 20.4764 138.453L76.045 172.769C76.0775 172.789 76.1106 172.808 76.1438 172.827C78.2944 174.036 81.777 174.949 84.2444 174.952L138.915 175C145.236 175 150.379 169.857 150.379 163.536C150.379 161.357 149.767 159.318 148.707 157.581C149.794 155.8 150.379 153.749 150.379 151.621Z" fill="white"/>
<path d="M121.552 0C93.0938 0 69.9422 23.1523 69.9422 51.6096C69.9422 69.7795 79.5782 86.678 95.1617 95.968L100.142 109.923V120.61C100.142 127.046 104.989 133.251 105.195 133.511C105.725 134.181 106.532 134.572 107.386 134.572H135.718C136.572 134.572 137.379 134.181 137.909 133.511C138.115 133.25 142.962 127.045 142.962 120.61V109.922L147.942 95.9677C163.526 86.6776 173.162 69.7792 173.162 51.6093C173.161 23.152 150.01 0 121.552 0ZM134.28 128.987H108.818C107.935 127.651 106.777 125.572 106.159 123.402H136.94C136.32 125.565 135.161 127.648 134.28 128.987ZM137.376 117.817H105.727V112.232H137.376V117.817ZM144.274 91.6416C143.692 91.9721 143.249 92.5005 143.025 93.1301L138.2 106.647H104.903L100.079 93.1301C99.8539 92.5005 99.4109 91.9721 98.8299 91.6416C84.456 83.4644 75.5272 68.1252 75.5272 51.6096C75.5272 26.2319 96.1734 5.58496 121.552 5.58496C146.93 5.58496 167.576 26.2319 167.576 51.6096C167.577 68.1252 158.647 83.4644 144.274 91.6416Z" fill="white"/>
<path d="M139.986 55.0795C134.639 51.059 128.265 48.9337 121.552 48.9337C114.851 48.9337 108.479 51.0617 103.124 55.0877C102.147 55.8226 101.762 57.1074 102.173 58.2589L111.312 83.8582V98.269C111.312 99.8112 112.562 101.061 114.104 101.061C115.647 101.061 116.897 99.8112 116.897 98.269V86.168H126.205V98.269C126.205 99.8112 127.455 101.061 128.998 101.061C130.54 101.061 131.79 99.8112 131.79 98.269V83.8605L140.937 58.2507C141.348 57.0996 140.963 55.8141 139.986 55.0795ZM126.206 80.5827H116.897V79.652C116.897 77.0854 118.985 74.9977 121.552 74.9977C124.118 74.9977 126.206 77.0854 126.206 79.652V80.5827ZM129.614 73.3506C127.738 70.9557 124.823 69.4124 121.552 69.4124C118.282 69.4124 115.367 70.9553 113.491 73.3493L108.152 58.396C112.16 55.8534 116.753 54.5186 121.552 54.5186C126.36 54.5186 130.955 55.8506 134.957 58.3878L129.614 73.3506Z" fill="#0091BE"/>
</svg>
