<svg width="239" height="239" viewBox="0 0 239 239" fill="none" xmlns="http://www.w3.org/2000/svg">
<path d="M165.851 171.405C162.389 168.228 156.991 168.436 153.353 171.405L126.244 193.344C122.929 196.045 118.792 197.5 114.509 197.5H79.8011C77.2193 197.5 75.107 195.363 75.107 192.75C75.107 190.137 77.2193 188 79.8011 188H102.773C107.438 188 111.78 184.764 112.543 180.103C113.511 174.166 108.993 169 103.272 169H56.3302C48.4088 169 40.7514 171.761 34.5903 176.808L20.9478 188H4.69419C2.11238 188 0 190.137 0 192.75V221.25C0 223.863 2.11238 226 4.69419 226H109.375C113.629 226 117.765 224.545 121.11 221.844L165.47 185.922C169.93 182.33 170.282 175.442 165.851 171.405Z" fill="white"/>
<path d="M117.609 29C89.1516 29 66 52.1523 66 80.6096C66 98.7795 75.6359 115.678 91.2195 124.968L96.1998 138.923V149.61C96.1998 156.046 101.046 162.251 101.253 162.511C101.782 163.181 102.589 163.572 103.444 163.572H131.776C132.63 163.572 133.437 163.181 133.967 162.511C134.173 162.25 139.019 156.045 139.019 149.61V138.922L144 124.968C159.584 115.678 169.22 98.7792 169.22 80.6093C169.219 52.152 146.067 29 117.609 29ZM130.338 157.987H104.876C103.993 156.651 102.834 154.572 102.217 152.402H132.998C132.377 154.565 131.219 156.648 130.338 157.987ZM133.434 146.817H101.785V141.232H133.434V146.817ZM140.332 120.642C139.75 120.972 139.307 121.5 139.083 122.13L134.258 135.647H100.961L96.1366 122.13C95.9117 121.5 95.4687 120.972 94.8877 120.642C80.5137 112.464 71.585 97.1252 71.585 80.6096C71.585 55.2319 92.2312 34.585 117.609 34.585C142.987 34.585 163.634 55.2319 163.634 80.6096C163.634 97.1252 154.705 112.464 140.332 120.642Z" fill="#0091BE"/>
<path d="M136.033 76.1459C130.687 72.1253 124.313 70 117.6 70C110.899 70 104.527 72.128 99.172 76.1541C98.1951 76.8889 97.8096 78.1737 98.2204 79.3252L107.36 104.924V119.335C107.36 120.877 108.61 122.128 110.152 122.128C111.695 122.128 112.945 120.877 112.945 119.335V107.234H122.253V119.335C122.253 120.877 123.503 122.128 125.046 122.128C126.588 122.128 127.838 120.877 127.838 119.335V104.927L136.984 79.317C137.396 78.1659 137.011 76.8804 136.033 76.1459ZM122.254 101.649H112.945V100.718C112.945 98.1518 115.033 96.0641 117.6 96.0641C120.166 96.0641 122.254 98.1518 122.254 100.718V101.649ZM125.662 94.4169C123.786 92.022 120.871 90.4788 117.6 90.4788C114.329 90.4788 111.414 92.0216 109.538 94.4156L104.2 79.4623C108.208 76.9197 112.801 75.585 117.6 75.585C122.408 75.585 127.002 76.9169 131.005 79.4541L125.662 94.4169Z" fill="#0091BE"/>
</svg>
