<svg width="130" height="130" viewBox="0 0 130 130" fill="none" xmlns="http://www.w3.org/2000/svg">
<g clip-path="url(#clip0_212_180)">
<path d="M130 18.0764C130 12.419 128.387 7.94193 125.207 4.77216C112.443 -7.94509 78.8814 5.57755 48.7895 35.5681C47.696 36.6581 46.6967 37.82 45.7357 39.0107C45.4202 38.8803 45.0572 38.7637 44.6398 38.6666C35.9733 36.6413 8.15857 41.3664 0.0613969 73.7156C-0.146986 74.5448 0.186319 75.4135 0.894413 75.8917C1.23769 76.1257 1.63442 76.2407 2.0311 76.2407C2.44954 76.2407 2.86818 76.1119 3.22324 75.8539C14.2135 67.8817 23.0304 64.6751 30.727 65.8555C30.1958 66.8185 29.6567 67.7578 29.0999 68.6554C28.6019 69.4587 28.7229 70.4981 29.3915 71.1646L32.5787 74.3415L26.6125 80.2855C26.2296 80.6664 26.0153 81.1839 26.0153 81.7236C26.0153 82.2631 26.2296 82.7809 26.6125 83.1618L46.5779 103.062C46.9745 103.456 47.4921 103.655 48.0119 103.655C48.5317 103.655 49.0495 103.456 49.4462 103.062L55.4203 97.1067L58.6164 100.293C59.0093 100.683 59.5271 100.886 60.0507 100.886C60.4175 100.886 60.7866 100.786 61.1159 100.584C61.9554 100.066 62.8268 99.5633 63.7234 99.0685C65.0456 106.803 61.8429 115.676 53.7427 126.77C53.2389 127.46 53.221 128.393 53.697 129.101C54.0798 129.672 54.7166 130 55.3831 130C55.5458 130 55.7104 129.98 55.873 129.94C88.2522 121.888 93.0366 94.1709 91.0411 85.5261C90.919 84.9986 90.7593 84.5832 90.5863 84.215C91.8771 83.1949 93.1349 82.1293 94.3102 80.9578C115.991 59.35 130 34.6657 130 18.0764ZM32.6168 62.0518C24.6921 60.3815 15.984 62.7044 5.64327 69.2881C10.7293 55.1746 19.993 48.5074 27.2611 45.3673C32.7101 43.0147 37.6692 42.3562 40.843 42.3562C41.6941 42.3562 42.414 42.4037 42.9833 42.4772L32.6168 62.0518ZM48.0119 98.755L30.9248 81.7236L35.4555 77.2108L50.2176 91.9217L52.5426 94.2384L48.0119 98.755ZM84.3642 102.726C81.222 110.004 74.5293 119.278 60.3205 124.362C66.9141 114.065 69.2448 105.392 67.5726 97.4896L87.2225 87.1507C87.5756 89.8208 87.3178 95.8829 84.3642 102.726ZM70.4627 91.132C66.8904 92.8518 63.4882 94.4864 60.366 96.2993L33.3865 69.411C34.8435 66.9162 36.1904 64.2067 37.5546 61.4081L45.8031 45.8343C47.5295 43.162 49.4421 40.6532 51.6578 38.4444C79.1869 11.0067 111.55 -3.09507 122.339 7.64841C124.727 10.0288 125.937 13.5378 125.937 18.0764C125.937 33.402 112.074 57.5172 91.4418 78.0816C85.6952 83.8083 77.9511 87.5316 70.4627 91.132Z" fill="white"/>
<path d="M86.7843 26.1084C84.4694 28.4114 83.1938 31.4761 83.1938 34.7371C83.1938 38.0003 84.4694 41.0651 86.7843 43.3681C89.1706 45.7424 92.3048 46.9307 95.4388 46.9307C98.573 46.9307 101.707 45.7424 104.092 43.3681C106.407 41.0651 107.68 38.0003 107.68 34.7371C107.68 31.4761 106.407 28.4114 104.092 26.1084C99.323 21.3595 91.5569 21.3595 86.7843 26.1084ZM101.227 40.4878C98.0335 43.6655 92.8423 43.6655 89.6487 40.4878C88.1074 38.9524 87.2563 36.9112 87.2563 34.7371C87.2563 32.5651 88.1074 30.5239 89.6487 28.9885C91.2455 27.3996 93.3421 26.6062 95.4388 26.6062C97.5357 26.6062 99.6303 27.3996 101.227 28.9885C102.768 30.5239 103.617 32.5651 103.617 34.7371C103.617 36.9112 102.768 38.9524 101.227 40.4878Z" fill="#0091BE"/>
<path d="M33.444 95.7678C32.6527 94.9724 31.3673 94.9724 30.5719 95.764L10.2693 115.999C9.4757 116.79 9.47184 118.076 10.2653 118.871C10.662 119.27 11.1817 119.468 11.7034 119.468C12.2211 119.468 12.7409 119.27 13.1376 118.875L33.4402 98.6402C34.2336 97.8487 34.2377 96.5633 33.444 95.7678Z" fill="#0091BE"/>
<path d="M11.628 105.571C12.1458 105.571 12.6654 105.373 13.0623 104.978L26.432 91.6519C27.2254 90.8604 27.2274 89.575 26.4358 88.7796C25.6444 87.9841 24.3591 87.9821 23.5636 88.7755L10.1937 102.102C9.40034 102.893 9.39831 104.179 10.1899 104.974C10.5866 105.373 11.1064 105.571 11.628 105.571Z" fill="#0091BE"/>
<path d="M37.5819 102.748L24.2122 116.074C23.4188 116.866 23.4168 118.151 24.2083 118.947C24.6051 119.345 25.1246 119.544 25.6465 119.544C26.164 119.544 26.6839 119.345 27.0805 118.951L40.4504 105.625C41.2439 104.833 41.2459 103.548 40.4543 102.752C39.6629 101.957 38.3773 101.955 37.5819 102.748Z" fill="#0091BE"/>
</g>
<defs>
<clipPath id="clip0_212_180">
<rect width="130" height="130" fill="white"/>
</clipPath>
</defs>
</svg>
