<svg width="129" height="131" viewBox="0 0 129 131" fill="none" xmlns="http://www.w3.org/2000/svg">
<g clip-path="url(#clip0_404_532)" filter="url(#filter0_d_404_532)">
<path d="M58 6.38C56.56 6.55 55.14 6.77 53.74 7.05C50.2369 7.74896 46.8154 8.80791 43.53 10.21C40.2798 11.5875 37.1634 13.2612 34.22 15.21C31.3428 17.134 28.6631 19.3381 26.22 21.79V21.79C23.7681 24.2331 21.564 26.9128 19.64 29.79C17.6912 32.7334 16.0175 35.8498 14.64 39.1L14.58 39.24C13.7632 41.162 13.0652 43.1324 12.49 45.14C11.2 44.77 10 44.35 8.78 43.91C8.14298 43.604 7.4715 43.3757 6.78 43.23C7.40453 41.0873 8.15585 38.9836 9.03 36.93L9.09 36.77C10.6379 33.1803 12.516 29.7422 14.7 26.5C19.006 20.1007 24.5107 14.596 30.91 10.29C34.1534 8.11637 37.5915 6.24836 41.18 4.71V4.71C44.8487 3.14495 48.6689 1.96204 52.58 1.18C60.5666 -0.393252 68.7834 -0.393252 76.77 1.18C80.6207 1.95527 84.3832 3.11785 88 4.65L88.16 4.71C91.7485 6.24836 95.1866 8.11637 98.43 10.29C104.84 14.593 110.355 20.0979 114.67 26.5C116.844 29.7434 118.712 33.1815 120.25 36.77V36.77C121.815 40.4361 123.001 44.2526 123.79 48.16C125.35 56.1512 125.35 64.3688 123.79 72.36C123.017 76.2158 121.851 79.9821 120.31 83.6L120.25 83.76C118.712 87.3485 116.844 90.7866 114.67 94.03C110.364 100.429 104.859 105.934 98.46 110.24C95.2166 112.414 91.7785 114.282 88.19 115.82V115.82C84.7085 117.303 81.0916 118.445 77.39 119.23C77.16 118.35 76.87 117.43 76.54 116.43C76.14 115.21 75.81 114.28 75.54 113.5H75.66C79.1634 112.803 82.5851 111.743 85.87 110.34C89.1202 108.962 92.2366 107.289 95.18 105.34C98.0572 103.416 100.737 101.212 103.18 98.76V98.76C105.632 96.3169 107.836 93.6372 109.76 90.76C111.709 87.8166 113.382 84.7002 114.76 81.45L114.82 81.31C116.193 78.0675 117.232 74.6934 117.92 71.24C118.645 67.6318 119.006 63.9602 119 60.28C119.005 57.5528 118.812 54.8289 118.42 52.13C117.21 54.57 116.85 61.32 116.85 62.78L113.85 63.7H113.4L110.88 56L108.93 49.84L102.33 61.71L100.14 63.09L97.86 50.29L93.52 47.21L81.2 45.05C84.07 52.47 94.05 58.76 78.2 62.05C79.47 65.87 86.91 62.6 79.86 71.82C77.6133 74.7533 75.8467 77.2067 74.56 79.18L75.69 87.41C75.81 88.32 75.2 89.26 73.76 90.21L73.67 90.27C71 65.3 54.14 57.08 35.2 51.49C35.8996 49.0889 37.431 47.0151 39.52 45.64C44.08 39.07 47.44 37.3 54.82 37.3V41.74L61.09 44.49L61.68 41.74C62.8521 41.9618 63.9759 42.3884 65 43C66.77 44.14 71.71 44.55 72.19 41.79C72.4093 40.5387 72.5164 39.2703 72.51 38L67.51 38.45C65.2 33.62 59.4 34.19 53 27.49C31.35 35.27 43.4 30 43.4 23.05L52.66 18.82C51.83 11.51 51.74 18.26 50.38 11.63C52.4818 10.4373 54.4878 9.08324 56.38 7.58C56.97 7.12 57.53 6.72 58.04 6.38H58ZM77 7.34C76.56 7.23 76.11 7.14 75.66 7.05C73.99 6.72 72.28 6.46 70.55 6.28C72.5351 7.30266 74.792 7.67356 77 7.34V7.34Z" fill="white"/>
<path fill-rule="evenodd" clip-rule="evenodd" d="M64 111.45C66.83 115.51 67 115.31 68.29 119.13C69.58 122.95 70.01 124.56 67.08 120.64C64.34 116.98 64.08 117.01 60.25 113.64L59.36 113.8C23.85 119.57 -1.3 102.83 5 51.71C31.8 62 70.4 59.52 64.78 107.58C64.7144 108.903 64.448 110.208 63.99 111.45H64ZM54.8 103.45C46.57 84 24 76.71 13.17 63.27C24.63 87.6 31.35 86.77 54.79 103.42L54.8 103.45Z" fill="#0091BE"/>
</g>
<defs>
<filter id="filter0_d_404_532" x="0" y="0" width="128.96" height="130.88" filterUnits="userSpaceOnUse" color-interpolation-filters="sRGB">
<feFlood flood-opacity="0" result="BackgroundImageFix"/>
<feColorMatrix in="SourceAlpha" type="matrix" values="0 0 0 0 0 0 0 0 0 0 0 0 0 0 0 0 0 0 127 0" result="hardAlpha"/>
<feOffset dy="4"/>
<feGaussianBlur stdDeviation="2"/>
<feComposite in2="hardAlpha" operator="out"/>
<feColorMatrix type="matrix" values="0 0 0 0 0 0 0 0 0 0 0 0 0 0 0 0 0 0 0.25 0"/>
<feBlend mode="normal" in2="BackgroundImageFix" result="effect1_dropShadow_404_532"/>
<feBlend mode="normal" in="SourceGraphic" in2="effect1_dropShadow_404_532" result="shape"/>
</filter>
<clipPath id="clip0_404_532">
<rect width="120.96" height="122.88" fill="white" transform="translate(4)"/>
</clipPath>
</defs>
</svg>
