<svg width="194" height="78" viewBox="0 0 194 78" fill="none" xmlns="http://www.w3.org/2000/svg">
<path d="M22.27 48.54C20.47 48.54 19 47.08 19 45.27C19 43.47 20.46 42 22.27 42H40.72V48.53H22.27V48.54Z" fill="#0091BE"/>
<path d="M13.27 32.53C11.47 32.53 10 31.07 10 29.27C10 27.47 11.46 26 13.27 26H34.63V32.53H13.27Z" fill="#0091BE"/>
<path d="M3.26 16.54C1.46 16.54 0 15.08 0 13.27C0 11.47 1.46 10 3.26 10H33.85V16.53H3.26V16.54Z" fill="#0091BE"/>
<path d="M53.4075 57.5949C50.9208 59.5668 49.2124 62.3371 48.7048 65.4831H46.6918C45.7613 65.4831 45 64.7788 45 63.9179V59.16C45 58.2991 45.7611 57.5952 46.6918 57.5952L53.4075 57.5949ZM72.7936 65.4829C72.929 66.0931 72.9967 66.7033 72.9967 67.3452C72.9967 72.7133 68.2939 77.0798 62.4746 77.0798C56.6724 77.0798 51.9526 72.7133 51.9526 67.3452C51.9526 66.7033 52.02 66.0931 52.1554 65.4829C53.0857 60.9908 57.3487 57.5947 62.4744 57.5947C67.6 57.5947 71.8801 60.9908 72.7936 65.4829ZM67.7356 67.3452C67.7356 66.688 67.6005 66.046 67.3298 65.4829C66.5517 63.7142 64.6738 62.4776 62.4749 62.4776C60.2757 62.4776 58.3981 63.7142 57.6197 65.4829C57.349 66.046 57.2139 66.688 57.2139 67.3452C57.2139 70.0214 59.5652 72.2126 62.4749 72.2126C65.3845 72.2126 67.7356 70.0214 67.7356 67.3452ZM49.1647 51.3504V4.69529C49.1647 2.10224 51.4369 0 54.2397 0H135.1C137.903 0 140.175 2.10224 140.175 4.69529V51.3504C140.175 52.2108 139.414 52.9152 138.484 52.9152H50.8565C49.926 52.9152 49.1647 52.2108 49.1647 51.3504ZM127.894 46.083C127.894 46.8261 128.545 47.4284 129.348 47.4284H129.393C130.196 47.4284 130.847 46.8261 130.847 46.083V7.37123C130.847 6.62836 130.196 6.02605 129.393 6.02605H129.348C128.545 6.02605 127.894 6.62836 127.894 7.37123V46.083ZM114.22 46.083C114.22 46.8261 114.871 47.4284 115.674 47.4284H115.719C116.522 47.4284 117.173 46.8261 117.173 46.083V7.37123C117.173 6.62836 116.522 6.02605 115.719 6.02605H115.674C114.871 6.02605 114.22 6.62836 114.22 7.37123V46.083ZM100.547 46.083C100.547 46.8261 101.198 47.4284 102.001 47.4284H102.046C102.849 47.4284 103.5 46.8261 103.5 46.083V7.37123C103.5 6.62836 102.849 6.02605 102.046 6.02605H102.001C101.198 6.02605 100.547 6.62836 100.547 7.37123V46.083ZM86.8734 46.083C86.8734 46.8261 87.5244 47.4284 88.3274 47.4284H88.3726C89.1756 47.4284 89.8266 46.8261 89.8266 46.083V7.37123C89.8266 6.62836 89.1756 6.02605 88.3726 6.02605H88.3274C87.5244 6.02605 86.8734 6.62836 86.8734 7.37123V46.083ZM73.2 46.083C73.2 46.8261 73.8507 47.4284 74.6539 47.4284H74.6992C75.5021 47.4284 76.1529 46.8261 76.1529 46.083V7.37123C76.1529 6.62836 75.5021 6.02605 74.6992 6.02605H74.6539C73.8507 6.02605 73.2 6.62836 73.2 7.37123V46.083ZM59.5265 46.083C59.5265 46.8261 60.1775 47.4284 60.9805 47.4284H61.0258C61.829 47.4284 62.4797 46.8261 62.4797 46.083V7.37123C62.4797 6.62836 61.829 6.02605 61.0258 6.02605H60.9805C60.1775 6.02605 59.5265 6.62836 59.5265 7.37123V46.083ZM98.7605 65.4829C98.8959 66.0931 98.9636 66.7033 98.9636 67.3452C98.9636 72.7133 94.2608 77.0798 88.4415 77.0798C82.6391 77.0798 77.9195 72.7133 77.9195 67.3452C77.9195 66.7033 77.9872 66.0931 78.1223 65.4829C79.0528 60.9908 83.3159 57.5947 88.4415 57.5947C93.5672 57.5947 97.847 60.9908 98.7605 65.4829ZM93.7025 67.3452C93.7025 66.688 93.5672 66.046 93.3135 65.4829C92.5183 63.7142 90.6405 62.4776 88.4415 62.4776C86.2426 62.4776 84.3645 63.7142 83.5696 65.4829C83.3159 66.046 83.1805 66.688 83.1805 67.3452C83.1805 70.0214 85.5319 72.2126 88.4418 72.2126C91.3512 72.2126 93.7025 70.0214 93.7025 67.3452ZM79.3742 57.5949H71.5422C73.2676 58.9719 74.6379 60.7405 75.4668 62.7439C76.2786 60.7407 77.6488 58.9719 79.3742 57.5949ZM194 59.1597V63.9176C194 64.7785 193.239 65.4829 192.308 65.4829H178.606C177.625 59.2692 171.856 54.4647 164.87 54.4647C157.884 54.4647 152.098 59.2692 151.117 65.4829H102.211C101.704 62.3368 99.9954 59.5665 97.5086 57.5947H145.01V12.8337C145.01 11.1119 146.516 9.70345 148.393 9.70345H164.363C168.862 9.70345 173.058 11.7694 175.578 15.2126L185.88 29.3295C187.386 31.3955 188.198 33.8369 188.198 36.3252V57.5947H192.308C193.239 57.5949 194 58.2988 194 59.1597ZM176.847 29.6894L168.608 18.8591C168.287 18.4523 167.78 18.2018 167.221 18.2018H154.382C153.452 18.2018 152.69 18.9059 152.69 19.7671V30.5817C152.69 31.4581 153.452 32.1467 154.382 32.1467H175.46C176.83 32.1467 177.625 30.7224 176.847 29.6894ZM175.392 67.3452C175.392 72.7133 170.672 77.0798 164.87 77.0798C159.05 77.0798 154.348 72.7133 154.348 67.3452C154.348 61.9614 159.05 57.5949 164.87 57.5949C170.672 57.5949 175.392 61.9611 175.392 67.3452ZM170.131 67.3452C170.131 64.6533 167.78 62.4778 164.87 62.4778C161.96 62.4778 159.609 64.6533 159.609 67.3452C159.609 70.0214 161.96 72.2126 164.87 72.2126C167.78 72.2126 170.131 70.0214 170.131 67.3452Z" fill="#1F355F"/>
</svg>
